<svg width="1225" height="630" viewBox="0 0 1225 630" fill="none" xmlns="http://www.w3.org/2000/svg">
<g clip-path="url(#clip0_6305_311)">
<rect width="1225" height="630" rx="77" fill="white"/>
<path d="M227.059 548.191C220.368 546.771 209.756 541.363 202.727 535.887C181.099 519.055 152.239 479.51 137.235 446.116C124.325 417.183 116.62 390.278 112.768 360.332C111.011 347.015 111.011 315.784 112.7 304.224C116.958 275.427 126.961 251.429 142.709 232.028C159.336 211.681 184.208 196.539 210.5 190.928C216.65 189.576 219.624 189.373 232.804 189.306C252.539 189.306 253.013 189.373 292.281 203.096C298.77 205.327 306.272 207.693 308.908 208.233C313.504 209.315 313.909 209.247 319.249 207.895C322.358 207.152 332.969 203.637 342.837 200.189C372.17 189.914 379.131 188.292 396.501 187.818C432.188 186.804 463.549 198.161 485.447 219.996C493.76 228.31 497.072 232.907 497.072 236.152C497.072 238.653 496.802 238.991 493.22 241.357C478.215 251.227 465.171 264.746 457.533 278.131C444.759 300.777 441.988 329.845 450.234 355.6C455.37 371.689 462.332 382.775 475.376 395.822C485.312 405.691 494.166 412.248 504.304 417.115C509.846 419.819 509.846 419.819 509.914 422.388C509.914 425.768 503.831 441.789 497.478 454.971C489.097 472.344 480.851 485.796 468.009 502.967C442.799 536.631 425.024 548.596 400.016 548.596C387.039 548.596 378.32 546.636 359.936 539.741C342.228 533.048 332.496 530.885 320.33 530.818C307.556 530.818 297.621 533.048 277.141 540.552C259.366 547.109 252.945 548.664 241.252 549.002C234.358 549.205 230.506 548.934 227.059 548.191Z" fill="black"/>
<path d="M749.04 474.237C699.295 466.53 666.042 433.136 655.971 380.612C653.606 368.647 652.997 358.912 653.403 340.39C653.741 322.138 654.755 313.959 658.134 300.506C663.338 280.159 673.679 261.299 686.859 247.914C703.418 231.149 722.004 221.821 747.553 217.292C755.055 215.94 758.569 215.737 772.83 215.737C790.471 215.737 796.419 216.413 809.328 219.725C835.484 226.418 856.842 241.56 871.171 263.597C881.241 279.145 887.662 297.262 890.839 319.096C892.326 329.371 892.596 358.845 891.244 369.458C884.823 420.631 858.532 455.579 816.019 469.572C802.502 473.966 794.729 475.116 774.858 475.318C760.327 475.521 756.272 475.318 749.04 474.237ZM789.389 431.379C820.277 422.861 838.729 396.565 842.446 355.938C844.879 329.236 837.85 301.047 824.332 283.269C810.206 264.679 787.767 255.215 764.923 258.189C730.723 262.718 708.487 289.082 703.621 330.994C702.269 342.418 702.269 349.178 703.621 360.602C705.31 375.069 709.433 388.724 715.313 399.202C723.897 414.344 736.739 425.227 752.081 430.297C763.841 434.15 777.9 434.556 789.389 431.379Z" fill="black"/>
<path d="M980.392 474.237C943.625 468.491 918.617 449.901 909.763 421.712C907.938 415.899 907.06 411.032 906.316 402.784L905.843 397.85H929.566H953.222L953.965 400.756C955.25 405.759 955.452 406.232 957.548 410.356C960.589 416.575 969.038 424.551 976.269 428.067C996.343 437.936 1020.13 437.733 1038.59 427.391C1050.14 420.969 1057.1 408.801 1055.21 398.391C1052.91 385.952 1042.3 377.57 1020.88 371.216C1017.7 370.269 1005.87 367.362 994.518 364.726C983.163 362.09 969.781 358.507 964.78 356.885C939.772 348.637 924.227 336.064 917.063 318.488C911.791 305.509 910.844 286.311 914.697 271.304C920.51 248.725 939.096 230.406 965.117 221.551C985.394 214.655 1014.19 213.371 1037.1 218.509C1054.94 222.429 1068.32 229.257 1079.68 240.14C1092.25 252.105 1099.21 267.518 1100.36 286.176L1100.83 293.071L1077.65 292.935L1054.47 292.733L1053.32 287.866C1049.8 272.791 1038.92 262.313 1022.23 257.851C1014.12 255.621 998.709 255.621 990.868 257.784C978.162 261.299 969.443 267.653 964.982 276.644C958.088 290.637 963.428 302.873 980.054 310.985C987.421 314.635 997.289 317.542 1017.16 322.071C1045.88 328.628 1054.06 331.129 1066.03 336.74C1092.66 349.313 1103.4 365.132 1104.48 393.185C1105.23 412.857 1101.64 426.85 1092.52 440.099C1080.62 457.27 1060.62 468.626 1033.58 473.629C1022.09 475.724 992.22 476.062 980.392 474.237Z" fill="black"/>
<path d="M585.612 378.584V285.635H608.93H632.248V378.584V471.533H608.93H585.612V378.584Z" fill="black"/>
<path d="M601.833 265.085C594.331 263.395 588.518 258.865 585.139 251.97C583.382 248.455 583.247 247.509 583.247 240.343C583.247 233.11 583.382 232.299 585.207 228.581C590.276 218.171 601.833 212.966 614.607 215.331C623.056 216.886 629.071 221.28 632.653 228.581C634.478 232.299 634.613 233.11 634.613 240.343C634.613 247.576 634.478 248.388 632.653 252.106C627.314 262.921 615.216 268.059 601.833 265.085Z" fill="black"/>
<path d="M308.773 190.049C308.57 189.035 308.502 183.289 308.705 177.273C309.11 164.497 310.8 156.182 315.193 145.096C322.155 127.52 335.605 109.606 349.866 98.9252C366.83 86.1489 387.31 77.8342 404.004 76.9554L411.236 76.5498V86.8249C411.236 101.832 409.681 111.093 405.018 123.058C399.34 137.93 391.23 150.098 378.793 162.671C359.261 182.41 342.431 190.522 319.181 191.469L309.246 191.874L308.773 190.049Z" fill="black"/>
</g>
<defs>
<clipPath id="clip0_6305_311">
<rect width="1225" height="630" rx="77" fill="white"/>
</clipPath>
</defs>
</svg>
